<?xml version="1.0" encoding="UTF-8"?>
<!DOCTYPE svg PUBLIC "-//W3C//DTD SVG 1.1//EN" "http://www.w3.org/Graphics/SVG/1.1/DTD/svg11.dtd">
<svg xmlns="http://www.w3.org/2000/svg" version="1.1" width="912px" height="330px" style="shape-rendering:geometricPrecision; text-rendering:geometricPrecision; image-rendering:optimizeQuality; fill-rule:evenodd; clip-rule:evenodd" xmlns:xlink="http://www.w3.org/1999/xlink">
<g><path style="opacity:1" fill="#fefefe" d="M -0.5,-0.5 C 303.5,-0.5 607.5,-0.5 911.5,-0.5C 911.5,109.5 911.5,219.5 911.5,329.5C 607.5,329.5 303.5,329.5 -0.5,329.5C -0.5,219.5 -0.5,109.5 -0.5,-0.5 Z"/></g>
<g><path style="opacity:1" fill="#030d80" d="M 127.5,99.5 C 162.537,96.7392 187.704,111.072 203,142.5C 214.666,182.189 202.499,212.022 166.5,232C 132.027,244.095 103.527,235.928 81,207.5C 69.2674,188.898 66.2674,168.898 72,147.5C 82.0078,121.593 100.508,105.593 127.5,99.5 Z"/></g>
<g><path style="opacity:1" fill="#0f1383" d="M 234.5,118.5 C 236.722,118.178 238.556,118.845 240,120.5C 240.667,152.167 240.667,183.833 240,215.5C 236.995,219.595 234.329,219.261 232,214.5C 231.333,183.5 231.333,152.5 232,121.5C 233.045,120.627 233.878,119.627 234.5,118.5 Z"/></g>
<g><path style="opacity:1" fill="#040e80" d="M 805.5,119.5 C 831.634,115.637 849.134,125.971 858,150.5C 862.432,169.557 859.432,187.223 849,203.5C 836.917,215.414 822.417,219.914 805.5,217C 788.778,213.278 778.278,203.112 774,186.5C 768.759,168.047 771.092,150.713 781,134.5C 787.804,127.026 795.971,122.026 805.5,119.5 Z"/></g>
<g><path style="opacity:1" fill="#4d53a5" d="M 264.5,121.5 C 289.661,120.502 314.995,120.169 340.5,120.5C 340.5,127.833 340.5,135.167 340.5,142.5C 332.167,142.5 323.833,142.5 315.5,142.5C 323.316,141.508 331.316,141.174 339.5,141.5C 339.5,134.833 339.5,128.167 339.5,121.5C 314.5,121.5 289.5,121.5 264.5,121.5 Z"/></g>
<g><path style="opacity:1" fill="#444ba0" d="M 547.5,122.5 C 543.08,121.861 538.58,121.528 534,121.5C 529.443,121.509 525.276,122.175 521.5,123.5C 520.596,122.791 520.263,121.791 520.5,120.5C 529.895,119.862 538.895,120.529 547.5,122.5 Z"/></g>
<g><path style="opacity:1" fill="#010c7f" d="M 264.5,121.5 C 289.5,121.5 314.5,121.5 339.5,121.5C 339.5,128.167 339.5,134.833 339.5,141.5C 331.316,141.174 323.316,141.508 315.5,142.5C 314.502,166.661 314.169,190.994 314.5,215.5C 306.5,215.5 298.5,215.5 290.5,215.5C 290.831,190.994 290.498,166.661 289.5,142.5C 281.35,141.507 273.017,141.174 264.5,141.5C 264.5,134.833 264.5,128.167 264.5,121.5 Z"/></g>
<g><path style="opacity:1" fill="#050e80" d="M 432.5,214.5 C 423.682,215.493 414.682,215.827 405.5,215.5C 400.091,205.684 394.924,195.684 390,185.5C 386.606,184.544 383.106,184.211 379.5,184.5C 379.5,195.167 379.5,205.833 379.5,216.5C 371.167,216.5 362.833,216.5 354.5,216.5C 354.5,184.5 354.5,152.5 354.5,120.5C 369.17,120.333 383.837,120.5 398.5,121C 422.578,124.754 432.078,138.588 427,162.5C 424.402,169.706 419.902,175.373 413.5,179.5C 420.1,191.034 426.433,202.701 432.5,214.5 Z"/></g>
<g><path style="opacity:1" fill="#080f81" d="M 522.5,214.5 C 514.016,215.493 505.349,215.826 496.5,215.5C 494.901,209.2 493.401,202.867 492,196.5C 483,195.167 474,195.167 465,196.5C 463.496,202.875 461.996,209.209 460.5,215.5C 451.983,215.826 443.65,215.493 435.5,214.5C 444.356,183.762 453.523,153.096 463,122.5C 468.086,121.194 473.42,120.527 479,120.5C 484.58,120.527 489.914,121.194 495,122.5C 504.477,153.096 513.644,183.762 522.5,214.5 Z"/></g>
<g><path style="opacity:1" fill="#060f81" d="M 521.5,123.5 C 525.276,122.175 529.443,121.509 534,121.5C 538.58,121.528 543.08,121.861 547.5,122.5C 553.159,145.468 558.659,168.468 564,191.5C 570.515,168.443 576.181,145.11 581,121.5C 589.415,120.517 597.915,120.183 606.5,120.5C 597.187,152.417 588.187,184.417 579.5,216.5C 569.167,216.5 558.833,216.5 548.5,216.5C 539.656,185.456 530.656,154.456 521.5,123.5 Z"/></g>
<g><path style="opacity:1" fill="#020d80" d="M 641.5,194.5 C 653.655,195.495 665.989,195.829 678.5,195.5C 678.5,202.167 678.5,208.833 678.5,215.5C 657.833,215.5 637.167,215.5 616.5,215.5C 616.5,183.833 616.5,152.167 616.5,120.5C 636.833,120.5 657.167,120.5 677.5,120.5C 677.5,127.5 677.5,134.5 677.5,141.5C 665.5,141.5 653.5,141.5 641.5,141.5C 641.5,146.833 641.5,152.167 641.5,157.5C 651.833,157.5 662.167,157.5 672.5,157.5C 672.5,164.167 672.5,170.833 672.5,177.5C 662.167,177.5 651.833,177.5 641.5,177.5C 641.5,183.167 641.5,188.833 641.5,194.5 Z"/></g>
<g><path style="opacity:1" fill="#5459a8" d="M 723.5,194.5 C 722.502,170.339 722.169,146.006 722.5,121.5C 714.5,121.5 706.5,121.5 698.5,121.5C 698.5,152.833 698.5,184.167 698.5,215.5C 718.5,215.5 738.5,215.5 758.5,215.5C 758.5,215.833 758.5,216.167 758.5,216.5C 738.167,216.5 717.833,216.5 697.5,216.5C 697.5,184.5 697.5,152.5 697.5,120.5C 706.167,120.5 714.833,120.5 723.5,120.5C 723.5,145.167 723.5,169.833 723.5,194.5 Z"/></g>
<g><path style="opacity:1" fill="#010c7f" d="M 723.5,194.5 C 734.988,195.495 746.655,195.828 758.5,195.5C 758.5,202.167 758.5,208.833 758.5,215.5C 738.5,215.5 718.5,215.5 698.5,215.5C 698.5,184.167 698.5,152.833 698.5,121.5C 706.5,121.5 714.5,121.5 722.5,121.5C 722.169,146.006 722.502,170.339 723.5,194.5 Z"/></g>
<g><path style="opacity:1" fill="#f4f5f9" d="M 134.5,140.5 C 136.39,140.297 137.89,140.963 139,142.5C 143.468,149.268 148.301,155.768 153.5,162C 157.5,162.333 161.5,162.667 165.5,163C 178.669,166.515 178.669,170.181 165.5,174C 161.5,174.333 157.5,174.667 153.5,175C 148.878,181.078 144.378,187.245 140,193.5C 138.736,195.607 136.903,196.607 134.5,196.5C 135.537,189.018 137.204,181.685 139.5,174.5C 134.156,174.334 128.823,174.501 123.5,175C 121.791,178.561 119.124,180.727 115.5,181.5C 116.022,176.933 117.355,172.6 119.5,168.5C 117.758,164.275 116.424,159.941 115.5,155.5C 119.124,156.273 121.791,158.439 123.5,162C 128.833,162.667 134.167,162.667 139.5,162C 137.094,155.016 135.427,147.849 134.5,140.5 Z"/></g>
<g><path style="opacity:1" fill="#fafafc" d="M 379.5,140.5 C 385.555,140.338 391.555,140.838 397.5,142C 403.234,145.18 405.067,150.013 403,156.5C 401.359,160.758 398.192,163.258 393.5,164C 388.845,164.499 384.179,164.666 379.5,164.5C 379.5,156.5 379.5,148.5 379.5,140.5 Z"/></g>
<g><path style="opacity:1" fill="#fafafc" d="M 811.5,140.5 C 824.717,140.543 832.217,147.21 834,160.5C 836.371,173.355 833.204,184.522 824.5,194C 813.25,198.792 805.083,195.625 800,184.5C 796.774,173.464 796.774,162.464 800,151.5C 802.437,146.226 806.271,142.56 811.5,140.5 Z"/></g>
<g><path style="opacity:1" fill="#585daa" d="M 289.5,142.5 C 290.498,166.661 290.831,190.994 290.5,215.5C 298.5,215.5 306.5,215.5 314.5,215.5C 314.169,190.994 314.502,166.661 315.5,142.5C 315.5,167.167 315.5,191.833 315.5,216.5C 306.833,216.5 298.167,216.5 289.5,216.5C 289.5,191.833 289.5,167.167 289.5,142.5 Z"/></g>
<g><path style="opacity:1" fill="#f4f4f9" d="M 477.5,139.5 C 478.693,139.97 479.36,140.97 479.5,142.5C 482.094,153.709 484.761,164.876 487.5,176C 481.472,176.83 475.472,176.664 469.5,175.5C 472.81,163.638 475.477,151.638 477.5,139.5 Z"/></g>
<g><path style="opacity:1" fill="#787dba" d="M 723.5,194.5 C 735.5,194.5 747.5,194.5 759.5,194.5C 759.825,202.019 759.492,209.352 758.5,216.5C 758.5,216.167 758.5,215.833 758.5,215.5C 758.5,208.833 758.5,202.167 758.5,195.5C 746.655,195.828 734.988,195.495 723.5,194.5 Z"/></g>
<g><path style="opacity:1" fill="#41499f" d="M 432.5,214.5 C 433.043,214.56 433.376,214.893 433.5,215.5C 424.008,216.822 414.675,216.822 405.5,215.5C 414.682,215.827 423.682,215.493 432.5,214.5 Z"/></g>
<g><path style="opacity:1" fill="#454ca1" d="M 435.5,214.5 C 443.65,215.493 451.983,215.826 460.5,215.5C 451.991,216.821 443.325,216.821 434.5,215.5C 434.624,214.893 434.957,214.56 435.5,214.5 Z"/></g>
<g><path style="opacity:1" fill="#454c9f" d="M 522.5,214.5 C 523.043,214.56 523.376,214.893 523.5,215.5C 514.342,216.822 505.342,216.822 496.5,215.5C 505.349,215.826 514.016,215.493 522.5,214.5 Z"/></g>
<g><path style="opacity:1" fill="#4f54a5" d="M 641.5,194.5 C 654.167,194.5 666.833,194.5 679.5,194.5C 679.5,201.833 679.5,209.167 679.5,216.5C 658.327,216.831 637.327,216.497 616.5,215.5C 637.167,215.5 657.833,215.5 678.5,215.5C 678.5,208.833 678.5,202.167 678.5,195.5C 665.989,195.829 653.655,195.495 641.5,194.5 Z"/></g>
</svg>
