<?xml version="1.0" encoding="UTF-8"?>
<!DOCTYPE svg PUBLIC "-//W3C//DTD SVG 1.1//EN" "http://www.w3.org/Graphics/SVG/1.1/DTD/svg11.dtd">
<svg xmlns="http://www.w3.org/2000/svg" version="1.1" width="831px" height="300px" style="shape-rendering:geometricPrecision; text-rendering:geometricPrecision; image-rendering:optimizeQuality; fill-rule:evenodd; clip-rule:evenodd" xmlns:xlink="http://www.w3.org/1999/xlink">
<g><path style="opacity:0.376" fill="#b1b3d6" d="M 136.5,90.5 C 129.5,90.5 122.5,90.5 115.5,90.5C 119.031,89.7704 122.697,89.1037 126.5,88.5C 129.971,89.0973 133.305,89.764 136.5,90.5 Z"/></g>
<g><path style="opacity:1" fill="#0a0f81" d="M 114.5,90.5 C 114.833,90.5 115.167,90.5 115.5,90.5C 122.5,90.5 129.5,90.5 136.5,90.5C 140.903,92.4078 145.57,93.7411 150.5,94.5C 153.485,95.3257 156.151,96.659 158.5,98.5C 158.821,100.048 159.821,100.715 161.5,100.5C 161.973,101.906 162.973,102.573 164.5,102.5C 167.833,106.5 171.5,110.167 175.5,113.5C 175.738,115.404 176.738,116.738 178.5,117.5C 178.427,119.027 179.094,120.027 180.5,120.5C 180.427,122.027 181.094,123.027 182.5,123.5C 183.736,125.649 184.736,127.982 185.5,130.5C 185.723,134.162 186.723,137.495 188.5,140.5C 188.5,140.833 188.5,141.167 188.5,141.5C 188.5,149.5 188.5,157.5 188.5,165.5C 187.668,171.666 185.668,177.333 182.5,182.5C 181.094,182.973 180.427,183.973 180.5,185.5C 173.527,198.8 162.861,207.8 148.5,212.5C 146.102,212.259 144.102,212.926 142.5,214.5C 142.167,214.5 141.833,214.5 141.5,214.5C 132.524,215.308 123.524,215.642 114.5,215.5C 112.901,215.768 111.568,215.434 110.5,214.5C 107.2,212.358 103.533,211.025 99.5,210.5C 97.1815,210.008 95.1815,209.008 93.5,207.5C 93.0269,206.094 92.0269,205.427 90.5,205.5C 89.7377,203.738 88.4044,202.738 86.5,202.5C 84.7607,199.757 82.4274,197.757 79.5,196.5C 78.8645,194.205 77.5311,192.539 75.5,191.5C 75.4456,189.368 74.4456,188.035 72.5,187.5C 70.3256,184.485 68.6589,181.151 67.5,177.5C 63.0434,163.031 62.3767,148.365 65.5,133.5C 67.2132,132.365 67.8799,130.698 67.5,128.5C 68.3257,125.515 69.659,122.849 71.5,120.5C 72.9063,120.027 73.573,119.027 73.5,117.5C 75.2624,116.738 76.2624,115.404 76.5,113.5C 78.1667,112.5 79.5,111.167 80.5,109.5C 81.5,107.833 82.8333,106.5 84.5,105.5C 86.7488,104.92 88.4154,103.587 89.5,101.5C 91.0269,101.573 92.0269,100.906 92.5,99.5C 92.8417,98.6618 93.5084,98.3284 94.5,98.5C 96.0269,98.573 97.0269,97.9063 97.5,96.5C 100.491,96.8337 102.824,95.8337 104.5,93.5C 108.214,93.4098 111.548,92.4098 114.5,90.5 Z M 126.5,130.5 C 127.124,132.754 128.457,134.421 130.5,135.5C 130.427,137.027 131.094,138.027 132.5,138.5C 132.738,140.404 133.738,141.738 135.5,142.5C 136.026,144.23 137.026,145.564 138.5,146.5C 138.611,147.117 138.944,147.617 139.5,148C 143.152,148.499 146.818,148.665 150.5,148.5C 152.302,149.458 154.302,150.125 156.5,150.5C 157.806,151.467 158.473,152.801 158.5,154.5C 156.456,155.508 154.456,156.508 152.5,157.5C 148.154,157.334 143.821,157.501 139.5,158C 138.748,158.671 138.414,159.504 138.5,160.5C 136.738,161.262 135.738,162.596 135.5,164.5C 134.094,164.973 133.427,165.973 133.5,167.5C 131.413,168.585 130.08,170.251 129.5,172.5C 127.738,173.262 126.738,174.596 126.5,176.5C 125.179,178.42 123.846,178.587 122.5,177C 124.337,172.319 125.671,167.486 126.5,162.5C 127.234,161.122 127.901,159.622 128.5,158C 122.984,157.183 117.65,157.349 112.5,158.5C 110.738,159.262 109.738,160.596 109.5,162.5C 108.542,162.953 107.708,163.619 107,164.5C 106.977,160.546 107.811,156.713 109.5,153C 108.239,149.692 106.906,146.525 105.5,143.5C 105.783,142.711 106.283,142.044 107,141.5C 108.617,143.763 110.45,145.763 112.5,147.5C 117.65,148.651 122.984,148.817 128.5,148C 127.578,145.706 126.578,143.539 125.5,141.5C 125.435,138.572 124.768,135.905 123.5,133.5C 123.34,131.801 123.506,130.134 124,128.5C 124.708,129.381 125.542,130.047 126.5,130.5 Z"/></g>
<g><path style="opacity:0.075" fill="#babbdb" d="M 136.5,90.5 C 141.54,90.8504 146.206,92.1837 150.5,94.5C 145.57,93.7411 140.903,92.4078 136.5,90.5 Z"/></g>
<g><path style="opacity:0.69" fill="#a5a6d1" d="M 114.5,90.5 C 111.548,92.4098 108.214,93.4098 104.5,93.5C 107.505,91.7234 110.838,90.7234 114.5,90.5 Z"/></g>
<g><path style="opacity:0.961" fill="#706ab3" d="M 104.5,93.5 C 102.824,95.8337 100.491,96.8337 97.5,96.5C 99.4261,94.7073 101.759,93.7073 104.5,93.5 Z"/></g>
<g><path style="opacity:0.718" fill="#8d8ec5" d="M 97.5,96.5 C 97.0269,97.9063 96.0269,98.573 94.5,98.5C 94.9731,97.0937 95.9731,96.427 97.5,96.5 Z"/></g>
<g><path style="opacity:0.937" fill="#8079b9" d="M 158.5,98.5 C 159.71,98.9321 160.71,99.5987 161.5,100.5C 159.821,100.715 158.821,100.048 158.5,98.5 Z"/></g>
<g><path style="opacity:0.647" fill="#9899cb" d="M 92.5,99.5 C 92.0269,100.906 91.0269,101.573 89.5,101.5C 89.9731,100.094 90.9731,99.427 92.5,99.5 Z"/></g>
<g><path style="opacity:0.031" fill="#cbcbe2" d="M 161.5,100.5 C 163.027,100.427 164.027,101.094 164.5,102.5C 162.973,102.573 161.973,101.906 161.5,100.5 Z"/></g>
<g><path style="opacity:0.012" fill="#b6b6d8" d="M 164.5,102.5 C 169.167,105.167 172.833,108.833 175.5,113.5C 171.5,110.167 167.833,106.5 164.5,102.5 Z"/></g>
<g><path style="opacity:0.898" fill="#7874b8" d="M 89.5,101.5 C 88.4154,103.587 86.7488,104.92 84.5,105.5C 85.5846,103.413 87.2512,102.08 89.5,101.5 Z"/></g>
<g><path style="opacity:0.98" fill="#746eb5" d="M 218.5,109.5 C 215.917,108.062 213.583,108.396 211.5,110.5C 212.128,107.045 214.128,105.878 217.5,107C 218.252,107.671 218.586,108.504 218.5,109.5 Z"/></g>
<g><path style="opacity:1" fill="#3d3093" d="M 218.5,109.5 C 219.222,109.918 219.722,110.584 220,111.5C 220.824,139.572 220.657,167.572 219.5,195.5C 218.094,195.973 217.427,196.973 217.5,198.5C 215.708,198.634 214.042,198.301 212.5,197.5C 211.883,197.389 211.383,197.056 211,196.5C 210.17,167.664 210.336,138.997 211.5,110.5C 213.583,108.396 215.917,108.062 218.5,109.5 Z"/></g>
<g><path style="opacity:0.764" fill="#706eb4" d="M 309.5,109.5 C 309.5,109.833 309.5,110.167 309.5,110.5C 286.833,110.5 264.167,110.5 241.5,110.5C 241.5,110.167 241.5,109.833 241.5,109.5C 264.067,109.428 286.734,109.428 309.5,109.5 Z"/></g>
<g><path style="opacity:0.764" fill="#8c88c3" d="M 451.5,113.5 C 450.596,112.791 450.263,111.791 450.5,110.5C 441.167,110.5 431.833,110.5 422.5,110.5C 422.771,112.38 422.104,113.713 420.5,114.5C 420.367,111.412 421.7,109.412 424.5,108.5C 433.109,108.54 441.776,108.707 450.5,109C 451.38,110.356 451.714,111.856 451.5,113.5 Z"/></g>
<g><path style="opacity:0.763" fill="#837fbe" d="M 498.5,109.5 C 498.5,109.833 498.5,110.167 498.5,110.5C 490.5,110.5 482.5,110.5 474.5,110.5C 474.5,110.167 474.5,109.833 474.5,109.5C 482.5,108.167 490.5,108.167 498.5,109.5 Z"/></g>
<g><path style="opacity:0.757" fill="#8b88c1" d="M 552.5,109.5 C 552.5,109.833 552.5,110.167 552.5,110.5C 544.833,110.5 537.167,110.5 529.5,110.5C 529.737,111.791 529.404,112.791 528.5,113.5C 528.286,111.856 528.62,110.356 529.5,109C 537.68,109.182 545.347,109.349 552.5,109.5 Z"/></g>
<g><path style="opacity:0.763" fill="#908dc5" d="M 617.5,129.5 C 617.5,129.167 617.5,128.833 617.5,128.5C 617.5,122.5 617.5,116.5 617.5,110.5C 599.167,110.5 580.833,110.5 562.5,110.5C 562.167,110.5 561.833,110.5 561.5,110.5C 561.5,110.167 561.5,109.833 561.5,109.5C 579.563,109.005 598.23,108.838 617.5,109C 618.827,115.932 618.827,122.765 617.5,129.5 Z"/></g>
<g><path style="opacity:0.878" fill="#8583c0" d="M 734.5,108.5 C 732.485,109.924 730.152,110.59 727.5,110.5C 729.515,109.076 731.848,108.41 734.5,108.5 Z"/></g>
<g><path style="opacity:1" fill="#141383" d="M 756.5,109.5 C 757.78,110.931 759.447,111.598 761.5,111.5C 763.153,111.66 764.486,112.326 765.5,113.5C 766.035,115.446 767.368,116.446 769.5,116.5C 770.5,116.833 771.167,117.5 771.5,118.5C 772.08,120.749 773.413,122.415 775.5,123.5C 775.427,125.027 776.094,126.027 777.5,126.5C 779.293,128.426 780.293,130.759 780.5,133.5C 780.41,136.152 781.076,138.485 782.5,140.5C 784.966,148.642 785.133,156.975 783,165.5C 782.024,170.612 780.191,175.278 777.5,179.5C 776.094,179.973 775.427,180.973 775.5,182.5C 774.094,182.973 773.427,183.973 773.5,185.5C 770.224,189.471 766.224,192.471 761.5,194.5C 758.215,194.928 755.215,195.928 752.5,197.5C 746.167,197.5 739.833,197.5 733.5,197.5C 731.316,195.415 728.649,194.415 725.5,194.5C 722.151,193.831 719.484,192.164 717.5,189.5C 715.785,187.118 713.785,185.118 711.5,183.5C 711.573,181.973 710.906,180.973 709.5,180.5C 706.263,175.34 704.097,169.674 703,163.5C 702.178,155.988 702.345,148.655 703.5,141.5C 704.924,139.485 705.59,137.152 705.5,134.5C 705.604,132.297 706.27,130.297 707.5,128.5C 709.25,127.341 710.25,125.674 710.5,123.5C 713.167,121.5 715.5,119.167 717.5,116.5C 717.5,115.833 717.833,115.5 718.5,115.5C 720.027,115.573 721.027,114.906 721.5,113.5C 723.819,113.008 725.819,112.008 727.5,110.5C 730.152,110.59 732.485,109.924 734.5,108.5C 741.925,107.097 749.259,107.431 756.5,109.5 Z M 748.5,129.5 C 750.332,130.248 751.999,131.248 753.5,132.5C 754.026,134.23 755.026,135.564 756.5,136.5C 756.796,138.403 757.463,140.07 758.5,141.5C 759.739,148.828 759.739,156.162 758.5,163.5C 757.637,165.421 756.971,167.421 756.5,169.5C 755.094,169.973 754.427,170.973 754.5,172.5C 752.4,174.616 750.067,176.283 747.5,177.5C 744.5,177.5 741.5,177.5 738.5,177.5C 737.71,176.599 736.71,175.932 735.5,175.5C 735.158,174.662 734.492,174.328 733.5,174.5C 733.262,172.596 732.262,171.262 730.5,170.5C 730.34,168.847 729.674,167.514 728.5,166.5C 727.642,158.868 727.309,151.201 727.5,143.5C 728.517,140.456 729.851,137.456 731.5,134.5C 732.906,134.027 733.573,133.027 733.5,131.5C 735.062,131.267 736.395,130.6 737.5,129.5C 741.167,128.167 744.833,128.167 748.5,129.5 Z"/></g>
<g><path style="opacity:0.373" fill="#c0c1df" d="M 80.5,109.5 C 79.5,111.167 78.1667,112.5 76.5,113.5C 76.8333,111.167 78.1667,109.833 80.5,109.5 Z"/></g>
<g><path style="opacity:1" fill="#010c7f" d="M 241.5,110.5 C 264.167,110.5 286.833,110.5 309.5,110.5C 309.5,116.5 309.5,122.5 309.5,128.5C 301.833,128.5 294.167,128.5 286.5,128.5C 286.5,151.167 286.5,173.833 286.5,196.5C 279.167,196.5 271.833,196.5 264.5,196.5C 264.831,173.994 264.497,151.66 263.5,129.5C 256.352,128.508 249.019,128.175 241.5,128.5C 241.5,122.5 241.5,116.5 241.5,110.5 Z"/></g>
<g><path style="opacity:0.644" fill="#9d9ccd" d="M 363.5,109.5 C 363.5,109.833 363.5,110.167 363.5,110.5C 350.167,110.5 336.833,110.5 323.5,110.5C 323.5,139.167 323.5,167.833 323.5,196.5C 323.167,196.5 322.833,196.5 322.5,196.5C 322.021,168.476 321.854,139.809 322,110.5C 322.5,110 323,109.5 323.5,109C 325.667,108.833 327.833,108.667 330,108.5C 341.046,108.234 352.212,108.567 363.5,109.5 Z"/></g>
<g><path style="opacity:1" fill="#0d1081" d="M 363.5,110.5 C 367.136,111.326 370.803,111.992 374.5,112.5C 378.892,113.359 382.225,115.693 384.5,119.5C 384.738,121.404 385.738,122.738 387.5,123.5C 388.927,125.148 389.76,127.148 390,129.5C 390.667,135.167 390.667,140.833 390,146.5C 389.76,148.852 388.927,150.852 387.5,152.5C 386.094,152.973 385.427,153.973 385.5,155.5C 385.5,156.167 385.167,156.5 384.5,156.5C 383.167,157.167 382.167,158.167 381.5,159.5C 380.521,161.145 379.188,162.479 377.5,163.5C 379.225,166.867 380.892,170.2 382.5,173.5C 382.427,175.027 383.094,176.027 384.5,176.5C 385.674,177.514 386.34,178.847 386.5,180.5C 386.427,182.027 387.094,183.027 388.5,183.5C 390.341,185.849 391.674,188.515 392.5,191.5C 392.427,193.027 393.094,194.027 394.5,194.5C 386.567,196.468 378.234,197.135 369.5,196.5C 364.007,187.519 359.007,178.186 354.5,168.5C 351.713,167.523 348.713,167.19 345.5,167.5C 345.5,177.167 345.5,186.833 345.5,196.5C 338.167,196.5 330.833,196.5 323.5,196.5C 323.5,167.833 323.5,139.167 323.5,110.5C 336.833,110.5 350.167,110.5 363.5,110.5 Z M 362.5,129.5 C 363.795,130.488 365.128,131.488 366.5,132.5C 367.092,135.127 367.425,137.794 367.5,140.5C 366.596,141.209 366.263,142.209 366.5,143.5C 364.833,144.5 363.5,145.833 362.5,147.5C 361.041,147.433 359.708,147.766 358.5,148.5C 354.5,148.5 350.5,148.5 346.5,148.5C 346.5,141.833 346.5,135.167 346.5,128.5C 351.854,128.569 357.187,128.902 362.5,129.5 Z"/></g>
<g><path style="opacity:0.122" fill="#c1c2de" d="M 363.5,110.5 C 363.5,110.167 363.5,109.833 363.5,109.5C 367.525,109.63 371.191,110.63 374.5,112.5C 370.803,111.992 367.136,111.326 363.5,110.5 Z"/></g>
<g><path style="opacity:1" fill="#0a0f81" d="M 451.5,113.5 C 452.724,120.167 454.724,126.501 457.5,132.5C 457.054,135.01 457.72,137.01 459.5,138.5C 459.674,141.874 460.174,145.207 461,148.5C 461.377,149.942 462.21,150.942 463.5,151.5C 463.5,151.833 463.5,152.167 463.5,152.5C 465.061,160.179 467.394,167.512 470.5,174.5C 471.404,175.209 471.737,176.209 471.5,177.5C 471.294,180.495 471.96,183.162 473.5,185.5C 474.167,189.167 474.833,192.833 475.5,196.5C 467.833,196.5 460.167,196.5 452.5,196.5C 452.279,193.933 451.612,191.599 450.5,189.5C 450.5,189.167 450.5,188.833 450.5,188.5C 450.662,186.473 450.495,184.473 450,182.5C 449.617,181.944 449.117,181.611 448.5,181.5C 448.5,181.167 448.5,180.833 448.5,180.5C 444.724,179.175 440.557,178.509 436,178.5C 431.443,178.509 427.276,179.175 423.5,180.5C 423.5,180.833 423.5,181.167 423.5,181.5C 422.883,181.611 422.383,181.944 422,182.5C 421.505,184.473 421.338,186.473 421.5,188.5C 421.5,188.833 421.5,189.167 421.5,189.5C 419.692,190.918 419.025,192.918 419.5,195.5C 412.167,195.5 404.833,195.5 397.5,195.5C 397.993,193.194 398.326,190.861 398.5,188.5C 398.565,185.572 399.232,182.905 400.5,180.5C 403.939,172.513 406.606,164.18 408.5,155.5C 409.434,154.432 409.768,153.099 409.5,151.5C 409.41,148.848 410.076,146.515 411.5,144.5C 414.272,138.512 416.272,132.178 417.5,125.5C 418.303,121.761 419.303,118.095 420.5,114.5C 422.104,113.713 422.771,112.38 422.5,110.5C 431.833,110.5 441.167,110.5 450.5,110.5C 450.263,111.791 450.596,112.791 451.5,113.5 Z M 437.5,133.5 C 437.5,133.833 437.5,134.167 437.5,134.5C 437.721,137.067 438.388,139.401 439.5,141.5C 439.216,143.415 439.549,145.081 440.5,146.5C 441.007,150.86 441.673,155.193 442.5,159.5C 438.167,159.5 433.833,159.5 429.5,159.5C 429.833,156.833 430.167,154.167 430.5,151.5C 431.301,149.958 431.634,148.292 431.5,146.5C 432.531,144.039 433.198,141.373 433.5,138.5C 434.301,136.958 434.634,135.292 434.5,133.5C 435.29,132.391 435.79,131.058 436,129.5C 436.21,131.058 436.71,132.391 437.5,133.5 Z"/></g>
<g><path style="opacity:1" fill="#121282" d="M 474.5,110.5 C 482.5,110.5 490.5,110.5 498.5,110.5C 498.723,114.162 499.723,117.495 501.5,120.5C 504.142,130.404 506.476,140.404 508.5,150.5C 508.294,153.495 508.96,156.162 510.5,158.5C 512.118,163.256 513.118,168.256 513.5,173.5C 513.393,175.379 513.893,175.712 515,174.5C 515.826,171.207 516.326,167.874 516.5,164.5C 519.039,152.687 521.706,141.021 524.5,129.5C 526.04,127.162 526.706,124.495 526.5,121.5C 526.565,118.572 527.232,115.905 528.5,113.5C 529.404,112.791 529.737,111.791 529.5,110.5C 537.167,110.5 544.833,110.5 552.5,110.5C 550.627,116.784 548.961,123.117 547.5,129.5C 547.5,129.833 547.5,130.167 547.5,130.5C 545.72,131.99 545.054,133.99 545.5,136.5C 545.233,138.965 544.566,141.299 543.5,143.5C 540.72,150.186 538.72,157.186 537.5,164.5C 535.72,165.99 535.054,167.99 535.5,170.5C 534.87,174.048 533.87,177.381 532.5,180.5C 530.233,185.547 528.566,190.88 527.5,196.5C 518.167,196.5 508.833,196.5 499.5,196.5C 499.741,194.102 499.074,192.102 497.5,190.5C 496.28,183.186 494.28,176.186 491.5,169.5C 490.596,168.791 490.263,167.791 490.5,166.5C 490.737,165.209 490.404,164.209 489.5,163.5C 489.5,163.167 489.5,162.833 489.5,162.5C 489.472,159.084 488.472,156.084 486.5,153.5C 486.15,148.46 484.816,143.794 482.5,139.5C 480.877,135.022 479.544,130.355 478.5,125.5C 478.741,123.102 478.074,121.102 476.5,119.5C 476.595,116.303 475.928,113.303 474.5,110.5 Z"/></g>
<g><path style="opacity:1" fill="#010c7f" d="M 562.5,110.5 C 580.833,110.5 599.167,110.5 617.5,110.5C 617.5,116.5 617.5,122.5 617.5,128.5C 606.116,127.856 595.116,128.523 584.5,130.5C 584.5,134.167 584.5,137.833 584.5,141.5C 593.44,143.472 602.773,144.139 612.5,143.5C 612.5,149.5 612.5,155.5 612.5,161.5C 602.985,161.173 593.652,161.506 584.5,162.5C 584.5,167.167 584.5,171.833 584.5,176.5C 595.654,177.495 606.988,177.828 618.5,177.5C 618.5,183.5 618.5,189.5 618.5,195.5C 599.833,195.5 581.167,195.5 562.5,195.5C 562.5,167.167 562.5,138.833 562.5,110.5 Z"/></g>
<g><path style="opacity:1" fill="#010c7f" d="M 658.5,110.5 C 658.5,132.833 658.5,155.167 658.5,177.5C 669.167,177.5 679.833,177.5 690.5,177.5C 690.5,183.5 690.5,189.5 690.5,195.5C 672.5,195.5 654.5,195.5 636.5,195.5C 636.5,167.167 636.5,138.833 636.5,110.5C 643.833,110.5 651.167,110.5 658.5,110.5 Z"/></g>
<g><path style="opacity:0.133" fill="#b4b4d9" d="M 727.5,110.5 C 725.819,112.008 723.819,113.008 721.5,113.5C 722.911,111.461 724.911,110.461 727.5,110.5 Z"/></g>
<g><path style="opacity:0.239" fill="#bfc0dc" d="M 756.5,109.5 C 758.553,109.402 760.22,110.069 761.5,111.5C 759.447,111.598 757.78,110.931 756.5,109.5 Z"/></g>
<g><path style="opacity:0.713" fill="#5c5fab" d="M 658.5,109.5 C 658.5,109.833 658.5,110.167 658.5,110.5C 651.167,110.5 643.833,110.5 636.5,110.5C 636.5,138.833 636.5,167.167 636.5,195.5C 636.5,195.833 636.5,196.167 636.5,196.5C 636.167,196.5 635.833,196.5 635.5,196.5C 635.333,167.498 635.5,138.498 636,109.5C 643.636,108.579 651.136,108.579 658.5,109.5 Z"/></g>
<g><path style="opacity:0.416" fill="#aaabd4" d="M 474.5,109.5 C 474.5,109.833 474.5,110.167 474.5,110.5C 475.928,113.303 476.595,116.303 476.5,119.5C 475.436,116.814 474.436,113.98 473.5,111C 473.57,110.235 473.903,109.735 474.5,109.5 Z"/></g>
<g><path style="opacity:0.035" fill="#b6b7d9" d="M 552.5,109.5 C 553.582,111.327 553.582,113.327 552.5,115.5C 551.199,120.411 549.532,125.078 547.5,129.5C 548.961,123.117 550.627,116.784 552.5,110.5C 552.5,110.167 552.5,109.833 552.5,109.5 Z"/></g>
<g><path style="opacity:0.616" fill="#a6a8d2" d="M 76.5,113.5 C 76.2624,115.404 75.2624,116.738 73.5,117.5C 73.7376,115.596 74.7376,114.262 76.5,113.5 Z"/></g>
<g><path style="opacity:0.788" fill="#8988c2" d="M 175.5,113.5 C 177.262,114.262 178.262,115.596 178.5,117.5C 176.738,116.738 175.738,115.404 175.5,113.5 Z"/></g>
<g><path style="opacity:0.757" fill="#7b7bbb" d="M 721.5,113.5 C 721.027,114.906 720.027,115.573 718.5,115.5C 718.973,114.094 719.973,113.427 721.5,113.5 Z"/></g>
<g><path style="opacity:0.898" fill="#8681bd" d="M 765.5,113.5 C 767.23,114.026 768.564,115.026 769.5,116.5C 767.368,116.446 766.035,115.446 765.5,113.5 Z"/></g>
<g><path style="opacity:0.937" fill="#8381bf" d="M 451.5,113.5 C 454.276,119.499 456.276,125.833 457.5,132.5C 454.724,126.501 452.724,120.167 451.5,113.5 Z"/></g>
<g><path style="opacity:0.569" fill="#a7a8d2" d="M 498.5,109.5 C 500.258,112.854 501.258,116.521 501.5,120.5C 499.723,117.495 498.723,114.162 498.5,110.5C 498.5,110.167 498.5,109.833 498.5,109.5 Z"/></g>
<g><path style="opacity:0.208" fill="#c4c5e1" d="M 73.5,117.5 C 73.573,119.027 72.9063,120.027 71.5,120.5C 71.427,118.973 72.0937,117.973 73.5,117.5 Z"/></g>
<g><path style="opacity:0.322" fill="#a9abd4" d="M 178.5,117.5 C 179.906,117.973 180.573,118.973 180.5,120.5C 179.094,120.027 178.427,119.027 178.5,117.5 Z"/></g>
<g><path style="opacity:0.663" fill="#9c9ccd" d="M 717.5,116.5 C 715.5,119.167 713.167,121.5 710.5,123.5C 711.833,120.167 714.167,117.833 717.5,116.5 Z"/></g>
<g><path style="opacity:0.894" fill="#7c79b9" d="M 771.5,118.5 C 773.587,119.585 774.92,121.251 775.5,123.5C 773.413,122.415 772.08,120.749 771.5,118.5 Z"/></g>
<g><path style="opacity:0.545" fill="#9798ca" d="M 384.5,119.5 C 386.262,120.262 387.262,121.596 387.5,123.5C 385.738,122.738 384.738,121.404 384.5,119.5 Z"/></g>
<g><path style="opacity:0.204" fill="#c3c5e1" d="M 180.5,120.5 C 181.906,120.973 182.573,121.973 182.5,123.5C 181.094,123.027 180.427,122.027 180.5,120.5 Z"/></g>
<g><path style="opacity:0.58" fill="#9799ca" d="M 476.5,119.5 C 478.074,121.102 478.741,123.102 478.5,125.5C 477.262,123.786 476.595,121.786 476.5,119.5 Z"/></g>
<g><path style="opacity:0.149" fill="#cbcce5" d="M 710.5,123.5 C 710.25,125.674 709.25,127.341 707.5,128.5C 707.75,126.326 708.75,124.659 710.5,123.5 Z"/></g>
<g><path style="opacity:0.482" fill="#8f8fc6" d="M 775.5,123.5 C 776.906,123.973 777.573,124.973 777.5,126.5C 776.094,126.027 775.427,125.027 775.5,123.5 Z"/></g>
<g><path style="opacity:0.102" fill="#c8cae4" d="M 526.5,121.5 C 526.706,124.495 526.04,127.162 524.5,129.5C 524.565,126.572 525.232,123.905 526.5,121.5 Z"/></g>
<g><path style="opacity:0.129" fill="#c0c1df" d="M 126.5,130.5 C 125.542,130.047 124.708,129.381 124,128.5C 123.506,130.134 123.34,131.801 123.5,133.5C 122.539,131.735 122.205,129.735 122.5,127.5C 124.973,127.088 126.306,128.088 126.5,130.5 Z"/></g>
<g><path style="opacity:0.53" fill="#7e83be" d="M 241.5,109.5 C 241.5,109.833 241.5,110.167 241.5,110.5C 241.5,116.5 241.5,122.5 241.5,128.5C 249.019,128.175 256.352,128.508 263.5,129.5C 255.833,129.5 248.167,129.5 240.5,129.5C 240.176,122.646 240.509,115.979 241.5,109.5 Z"/></g>
<g><path style="opacity:0.808" fill="#9393c8" d="M 417.5,125.5 C 416.272,132.178 414.272,138.512 411.5,144.5C 412.726,137.826 414.726,131.493 417.5,125.5 Z"/></g>
<g><path style="opacity:0.533" fill="#7d81bd" d="M 617.5,128.5 C 617.5,128.833 617.5,129.167 617.5,129.5C 606.419,129.19 595.419,129.523 584.5,130.5C 595.116,128.523 606.116,127.856 617.5,128.5 Z"/></g>
<g><path style="opacity:0.012" fill="#c7c7e3" d="M 748.5,129.5 C 744.833,128.167 741.167,128.167 737.5,129.5C 741.167,126.833 744.833,126.833 748.5,129.5 Z"/></g>
<g><path style="opacity:0.494" fill="#7f83be" d="M 309.5,109.5 C 310.491,115.979 310.824,122.646 310.5,129.5C 302.833,129.5 295.167,129.5 287.5,129.5C 287.5,151.833 287.5,174.167 287.5,196.5C 287.167,196.5 286.833,196.5 286.5,196.5C 286.5,173.833 286.5,151.167 286.5,128.5C 294.167,128.5 301.833,128.5 309.5,128.5C 309.5,122.5 309.5,116.5 309.5,110.5C 309.5,110.167 309.5,109.833 309.5,109.5 Z"/></g>
<g><path style="opacity:0.221" fill="#b7bbdb" d="M 362.5,129.5 C 357.187,128.902 351.854,128.569 346.5,128.5C 346.5,135.167 346.5,141.833 346.5,148.5C 350.5,148.5 354.5,148.5 358.5,148.5C 354.366,149.485 350.032,149.818 345.5,149.5C 345.5,142.167 345.5,134.833 345.5,127.5C 351.43,127.128 357.097,127.795 362.5,129.5 Z"/></g>
<g><path style="opacity:0.435" fill="#9394c8" d="M 437.5,133.5 C 436.71,132.391 436.21,131.058 436,129.5C 435.79,131.058 435.29,132.391 434.5,133.5C 434.192,131.076 434.526,128.743 435.5,126.5C 436.086,126.709 436.586,127.043 437,127.5C 437.495,129.473 437.662,131.473 437.5,133.5 Z"/></g>
<g><path style="opacity:0.855" fill="#9290c7" d="M 126.5,130.5 C 128.531,131.539 129.864,133.205 130.5,135.5C 128.457,134.421 127.124,132.754 126.5,130.5 Z"/></g>
<g><path style="opacity:0.871" fill="#8a88c3" d="M 67.5,128.5 C 67.8799,130.698 67.2132,132.365 65.5,133.5C 65.4021,131.447 66.0687,129.78 67.5,128.5 Z"/></g>
<g><path style="opacity:0.784" fill="#8784c1" d="M 547.5,130.5 C 547.405,132.786 546.738,134.786 545.5,136.5C 545.054,133.99 545.72,131.99 547.5,130.5 Z"/></g>
<g><path style="opacity:0.039" fill="#bcbddd" d="M 733.5,131.5 C 733.573,133.027 732.906,134.027 731.5,134.5C 731.427,132.973 732.094,131.973 733.5,131.5 Z"/></g>
<g><path style="opacity:0.925" fill="#8984c0" d="M 753.5,132.5 C 755.446,133.035 756.446,134.368 756.5,136.5C 755.026,135.564 754.026,134.23 753.5,132.5 Z"/></g>
<g><path style="opacity:0.859" fill="#8685bf" d="M 185.5,130.5 C 187.277,133.505 188.277,136.838 188.5,140.5C 186.723,137.495 185.723,134.162 185.5,130.5 Z"/></g>
<g><path style="opacity:0.031" fill="#c5c5e1" d="M 130.5,135.5 C 131.906,135.973 132.573,136.973 132.5,138.5C 131.094,138.027 130.427,137.027 130.5,135.5 Z"/></g>
<g><path style="opacity:0.898" fill="#6e69b2" d="M 437.5,134.5 C 438.117,134.611 438.617,134.944 439,135.5C 439.495,137.473 439.662,139.473 439.5,141.5C 438.388,139.401 437.721,137.067 437.5,134.5 Z"/></g>
<g><path style="opacity:0.961" fill="#837bbc" d="M 457.5,132.5 C 458.738,134.214 459.405,136.214 459.5,138.5C 457.72,137.01 457.054,135.01 457.5,132.5 Z"/></g>
<g><path style="opacity:0.608" fill="#6366af" d="M 366.5,132.5 C 368.584,134.993 368.917,137.66 367.5,140.5C 367.425,137.794 367.092,135.127 366.5,132.5 Z"/></g>
<g><path style="opacity:0.004" fill="#d0d1e7" d="M 132.5,138.5 C 134.262,139.262 135.262,140.596 135.5,142.5C 133.738,141.738 132.738,140.404 132.5,138.5 Z"/></g>
<g><path style="opacity:0.78" fill="#5f60ad" d="M 780.5,133.5 C 781.924,135.515 782.59,137.848 782.5,140.5C 781.076,138.485 780.41,136.152 780.5,133.5 Z"/></g>
<g><path style="opacity:0.91" fill="#756fb6" d="M 433.5,138.5 C 433.198,141.373 432.531,144.039 431.5,146.5C 431.337,144.143 431.503,141.81 432,139.5C 432.383,138.944 432.883,138.611 433.5,138.5 Z"/></g>
<g><path style="opacity:0.635" fill="#7d7fbd" d="M 705.5,134.5 C 705.59,137.152 704.924,139.485 703.5,141.5C 703.41,138.848 704.076,136.515 705.5,134.5 Z"/></g>
<g><path style="opacity:0.012" fill="#c3c4e1" d="M 482.5,139.5 C 484.816,143.794 486.15,148.46 486.5,153.5C 484.592,149.097 483.259,144.43 482.5,139.5 Z"/></g>
<g><path style="opacity:0.717" fill="#8281be" d="M 584.5,141.5 C 594.015,141.173 603.348,141.506 612.5,142.5C 612.5,142.833 612.5,143.167 612.5,143.5C 602.773,144.139 593.44,143.472 584.5,141.5 Z"/></g>
<g><path style="opacity:0.573" fill="#9896c9" d="M 135.5,142.5 C 137.446,143.035 138.446,144.368 138.5,146.5C 137.026,145.564 136.026,144.23 135.5,142.5 Z"/></g>
<g><path style="opacity:0.51" fill="#9fa1cf" d="M 366.5,143.5 C 366.167,145.833 364.833,147.167 362.5,147.5C 363.5,145.833 364.833,144.5 366.5,143.5 Z"/></g>
<g><path style="opacity:0.827" fill="#8e8ec5" d="M 105.5,143.5 C 106.906,146.525 108.239,149.692 109.5,153C 107.811,156.713 106.977,160.546 107,164.5C 107.708,163.619 108.542,162.953 109.5,162.5C 109.306,164.912 107.973,165.912 105.5,165.5C 105.534,161.396 106.201,157.396 107.5,153.5C 106.62,150.198 105.954,146.865 105.5,143.5 Z"/></g>
<g><path style="opacity:0.99" fill="#5a50a5" d="M 459.5,138.5 C 460.969,142.687 462.302,147.02 463.5,151.5C 462.21,150.942 461.377,149.942 461,148.5C 460.174,145.207 459.674,141.874 459.5,138.5 Z"/></g>
<g><path style="opacity:0.008" fill="#bfc0df" d="M 543.5,143.5 C 542.258,150.817 540.258,157.817 537.5,164.5C 538.72,157.186 540.72,150.186 543.5,143.5 Z"/></g>
<g><path style="opacity:0.247" fill="#a9acd4" d="M 125.5,141.5 C 126.578,143.539 127.578,145.706 128.5,148C 122.984,148.817 117.65,148.651 112.5,147.5C 117.214,147.827 121.88,147.493 126.5,146.5C 125.691,144.929 125.357,143.262 125.5,141.5 Z"/></g>
<g><path style="opacity:0.765" fill="#9f9ecd" d="M 150.5,148.5 C 153.01,148.054 155.01,148.72 156.5,150.5C 154.302,150.125 152.302,149.458 150.5,148.5 Z"/></g>
<g><path style="opacity:0.427" fill="#9a9ccc" d="M 758.5,141.5 C 761.117,148.843 761.117,156.176 758.5,163.5C 759.739,156.162 759.739,148.828 758.5,141.5 Z"/></g>
<g><path style="opacity:0.616" fill="#a1a3d0" d="M 65.5,133.5 C 62.3767,148.365 63.0434,163.031 67.5,177.5C 65.5541,175.266 64.3874,172.599 64,169.5C 60.862,157.261 61.362,145.261 65.5,133.5 Z"/></g>
<g><path style="opacity:0.039" fill="#c6c7e2" d="M 387.5,152.5 C 387.573,154.027 386.906,155.027 385.5,155.5C 385.427,153.973 386.094,152.973 387.5,152.5 Z"/></g>
<g><path style="opacity:0.827" fill="#8a87c0" d="M 409.5,151.5 C 409.768,153.099 409.434,154.432 408.5,155.5C 408.67,154.178 408.337,153.011 407.5,152C 408.094,151.536 408.761,151.369 409.5,151.5 Z"/></g>
<g><path style="opacity:0.929" fill="#6e6bb3" d="M 158.5,154.5 C 157.313,156.975 155.313,157.975 152.5,157.5C 154.456,156.508 156.456,155.508 158.5,154.5 Z"/></g>
<g><path style="opacity:0.525" fill="#9b9ccc" d="M 486.5,153.5 C 488.472,156.084 489.472,159.084 489.5,162.5C 487.928,159.785 486.928,156.785 486.5,153.5 Z"/></g>
<g><path style="opacity:0.224" fill="#b6b6da" d="M 508.5,150.5 C 510.04,152.838 510.706,155.505 510.5,158.5C 508.96,156.162 508.294,153.495 508.5,150.5 Z"/></g>
<g><path style="opacity:0.2" fill="#c8cbe4" d="M 112.5,158.5 C 117.65,157.349 122.984,157.183 128.5,158C 127.901,159.622 127.234,161.122 126.5,162.5C 126.5,161.167 126.5,159.833 126.5,158.5C 121.833,158.5 117.167,158.5 112.5,158.5 Z"/></g>
<g><path style="opacity:0.714" fill="#8786c1" d="M 188.5,141.5 C 191.116,149.493 191.116,157.493 188.5,165.5C 188.5,157.5 188.5,149.5 188.5,141.5 Z"/></g>
<g><path style="opacity:0.008" fill="#d1d2e8" d="M 384.5,156.5 C 384.5,158.5 383.5,159.5 381.5,159.5C 382.167,158.167 383.167,157.167 384.5,156.5 Z"/></g>
<g><path style="opacity:0.064" fill="#d6d6ea" d="M 440.5,146.5 C 442.419,150.857 443.419,155.523 443.5,160.5C 438.5,160.5 433.5,160.5 428.5,160.5C 428.215,157.171 428.882,154.171 430.5,151.5C 430.167,154.167 429.833,156.833 429.5,159.5C 433.833,159.5 438.167,159.5 442.5,159.5C 441.673,155.193 441.007,150.86 440.5,146.5 Z"/></g>
<g><path style="opacity:0.506" fill="#a7a8d3" d="M 112.5,158.5 C 112.262,160.404 111.262,161.738 109.5,162.5C 109.738,160.596 110.738,159.262 112.5,158.5 Z"/></g>
<g><path style="opacity:0.352" fill="#acb0d5" d="M 612.5,142.5 C 613.491,148.979 613.824,155.646 613.5,162.5C 603.833,162.5 594.167,162.5 584.5,162.5C 593.652,161.506 602.985,161.173 612.5,161.5C 612.5,155.5 612.5,149.5 612.5,143.5C 612.5,143.167 612.5,142.833 612.5,142.5 Z"/></g>
<g><path style="opacity:0.616" fill="#8d8fc5" d="M 138.5,160.5 C 138.262,162.404 137.262,163.738 135.5,164.5C 135.738,162.596 136.738,161.262 138.5,160.5 Z"/></g>
<g><path style="opacity:0.941" fill="#9691c8" d="M 727.5,143.5 C 727.309,151.201 727.642,158.868 728.5,166.5C 727.732,165.737 727.232,164.737 727,163.5C 726.179,156.654 726.346,149.987 727.5,143.5 Z"/></g>
<g><path style="opacity:0.58" fill="#a0a1cf" d="M 463.5,152.5 C 466.607,159.492 468.941,166.826 470.5,174.5C 467.394,167.512 465.061,160.179 463.5,152.5 Z"/></g>
<g><path style="opacity:0.004" fill="#e5e6f1" d="M 489.5,163.5 C 490.404,164.209 490.737,165.209 490.5,166.5C 489.761,166.631 489.094,166.464 488.5,166C 489.252,165.329 489.586,164.496 489.5,163.5 Z"/></g>
<g><path style="opacity:0.608" fill="#8484c0" d="M 135.5,164.5 C 135.573,166.027 134.906,167.027 133.5,167.5C 133.427,165.973 134.094,164.973 135.5,164.5 Z"/></g>
<g><path style="opacity:0.745" fill="#8887c2" d="M 537.5,164.5 C 537.405,166.786 536.738,168.786 535.5,170.5C 535.054,167.99 535.72,165.99 537.5,164.5 Z"/></g>
<g><path style="opacity:0.216" fill="#c9cce4" d="M 354.5,168.5 C 351.833,168.5 349.167,168.5 346.5,168.5C 346.5,178.167 346.5,187.833 346.5,197.5C 338.316,197.826 330.316,197.492 322.5,196.5C 322.833,196.5 323.167,196.5 323.5,196.5C 330.833,196.5 338.167,196.5 345.5,196.5C 345.5,186.833 345.5,177.167 345.5,167.5C 348.713,167.19 351.713,167.523 354.5,168.5 Z"/></g>
<g><path style="opacity:0.075" fill="#bebfde" d="M 516.5,164.5 C 516.326,167.874 515.826,171.207 515,174.5C 513.893,175.712 513.393,175.379 513.5,173.5C 514.374,170.465 515.374,167.465 516.5,164.5 Z"/></g>
<g><path style="opacity:0.604" fill="#8f8cc5" d="M 133.5,167.5 C 132.92,169.749 131.587,171.415 129.5,172.5C 130.08,170.251 131.413,168.585 133.5,167.5 Z"/></g>
<g><path style="opacity:0.686" fill="#9a9bcc" d="M 730.5,170.5 C 732.262,171.262 733.262,172.596 733.5,174.5C 731.738,173.738 730.738,172.404 730.5,170.5 Z"/></g>
<g><path style="opacity:0.361" fill="#a7a8d2" d="M 756.5,169.5 C 756.573,171.027 755.906,172.027 754.5,172.5C 754.427,170.973 755.094,169.973 756.5,169.5 Z"/></g>
<g><path style="opacity:0.004" fill="#bcbddd" d="M 491.5,169.5 C 494.28,176.186 496.28,183.186 497.5,190.5C 494.723,183.822 492.723,176.822 491.5,169.5 Z"/></g>
<g><path style="opacity:0.58" fill="#9899cb" d="M 129.5,172.5 C 129.262,174.404 128.262,175.738 126.5,176.5C 126.738,174.596 127.738,173.262 129.5,172.5 Z"/></g>
<g><path style="opacity:0.318" fill="#acaed5" d="M 382.5,173.5 C 383.906,173.973 384.573,174.973 384.5,176.5C 383.094,176.027 382.427,175.027 382.5,173.5 Z"/></g>
<g><path style="opacity:0.344" fill="#9ba0cd" d="M 584.5,176.5 C 596.167,176.5 607.833,176.5 619.5,176.5C 619.5,183.167 619.5,189.833 619.5,196.5C 619.167,196.5 618.833,196.5 618.5,196.5C 618.5,196.167 618.5,195.833 618.5,195.5C 618.5,189.5 618.5,183.5 618.5,177.5C 606.988,177.828 595.654,177.495 584.5,176.5 Z"/></g>
<g><path style="opacity:0.366" fill="#b1b4d7" d="M 658.5,109.5 C 659.497,131.66 659.831,153.994 659.5,176.5C 670.5,176.5 681.5,176.5 692.5,176.5C 692.5,183.5 692.5,190.5 692.5,197.5C 673.326,197.83 654.326,197.497 635.5,196.5C 635.833,196.5 636.167,196.5 636.5,196.5C 654.833,196.5 673.167,196.5 691.5,196.5C 691.823,189.978 691.49,183.645 690.5,177.5C 679.833,177.5 669.167,177.5 658.5,177.5C 658.5,155.167 658.5,132.833 658.5,110.5C 658.5,110.167 658.5,109.833 658.5,109.5 Z"/></g>
<g><path style="opacity:0.855" fill="#827ebe" d="M 735.5,175.5 C 736.71,175.932 737.71,176.599 738.5,177.5C 736.821,177.715 735.821,177.048 735.5,175.5 Z"/></g>
<g><path style="opacity:0.949" fill="#6963af" d="M 754.5,172.5 C 753.57,176.093 751.237,177.759 747.5,177.5C 750.067,176.283 752.4,174.616 754.5,172.5 Z"/></g>
<g><path style="opacity:0.729" fill="#9392c7" d="M 408.5,155.5 C 406.606,164.18 403.939,172.513 400.5,180.5C 402.391,171.831 405.057,163.498 408.5,155.5 Z"/></g>
<g><path style="opacity:0.011" fill="#f3f3f8" d="M 448.5,180.5 C 440.167,179.167 431.833,179.167 423.5,180.5C 427.276,179.175 431.443,178.509 436,178.5C 440.557,178.509 444.724,179.175 448.5,180.5 Z"/></g>
<g><path style="opacity:0.851" fill="#8f8bc2" d="M 471.5,177.5 C 472.768,179.905 473.435,182.572 473.5,185.5C 471.96,183.162 471.294,180.495 471.5,177.5 Z"/></g>
<g><path style="opacity:0.153" fill="#bdbede" d="M 777.5,179.5 C 777.573,181.027 776.906,182.027 775.5,182.5C 775.427,180.973 776.094,179.973 777.5,179.5 Z"/></g>
<g><path style="opacity:0.18" fill="#c5c7e2" d="M 386.5,180.5 C 387.906,180.973 388.573,181.973 388.5,183.5C 387.094,183.027 386.427,182.027 386.5,180.5 Z"/></g>
<g><path style="opacity:0.118" fill="#c5c7e2" d="M 709.5,180.5 C 710.906,180.973 711.573,181.973 711.5,183.5C 710.094,183.027 709.427,182.027 709.5,180.5 Z"/></g>
<g><path style="opacity:0.906" fill="#706bb4" d="M 423.5,181.5 C 423.279,184.067 422.612,186.401 421.5,188.5C 421.338,186.473 421.505,184.473 422,182.5C 422.383,181.944 422.883,181.611 423.5,181.5 Z"/></g>
<g><path style="opacity:0.945" fill="#736cb4" d="M 448.5,181.5 C 449.117,181.611 449.617,181.944 450,182.5C 450.495,184.473 450.662,186.473 450.5,188.5C 449.388,186.401 448.721,184.067 448.5,181.5 Z"/></g>
<g><path style="opacity:0.027" fill="#c2c4e0" d="M 775.5,182.5 C 775.573,184.027 774.906,185.027 773.5,185.5C 773.427,183.973 774.094,182.973 775.5,182.5 Z"/></g>
<g><path style="opacity:0.212" fill="#b5b6da" d="M 182.5,182.5 C 182.573,184.027 181.906,185.027 180.5,185.5C 180.427,183.973 181.094,182.973 182.5,182.5 Z"/></g>
<g><path style="opacity:0.525" fill="#a2a1cf" d="M 711.5,183.5 C 713.785,185.118 715.785,187.118 717.5,189.5C 714.522,188.522 712.522,186.522 711.5,183.5 Z"/></g>
<g><path style="opacity:0.863" fill="#7575b6" d="M 473.5,185.5 C 475.072,188.215 476.072,191.215 476.5,194.5C 476.672,195.492 476.338,196.158 475.5,196.5C 474.833,192.833 474.167,189.167 473.5,185.5 Z"/></g>
<g><path style="opacity:0.62" fill="#908cc5" d="M 72.5,187.5 C 74.4456,188.035 75.4456,189.368 75.5,191.5C 74.0256,190.564 73.0256,189.23 72.5,187.5 Z"/></g>
<g><path style="opacity:0.004" fill="#f9faf9" d="M 261.5,192.5 C 262.525,192.897 262.692,193.563 262,194.5C 261.536,193.906 261.369,193.239 261.5,192.5 Z"/></g>
<g><path style="opacity:0.024" fill="#c3c4df" d="M 450.5,189.5 C 451.612,191.599 452.279,193.933 452.5,196.5C 450.837,194.562 450.171,192.228 450.5,189.5 Z"/></g>
<g><path style="opacity:0.576" fill="#9897ca" d="M 75.5,191.5 C 77.5311,192.539 78.8645,194.205 79.5,196.5C 77.457,195.421 76.1237,193.754 75.5,191.5 Z"/></g>
<g><path style="opacity:0.365" fill="#a1a3cf" d="M 392.5,191.5 C 393.906,191.973 394.573,192.973 394.5,194.5C 393.094,194.027 392.427,193.027 392.5,191.5 Z"/></g>
<g><path style="opacity:0.596" fill="#9394c8" d="M 497.5,190.5 C 499.074,192.102 499.741,194.102 499.5,196.5C 498.262,194.786 497.595,192.786 497.5,190.5 Z"/></g>
<g><path style="opacity:0.898" fill="#3a3898" d="M 398.5,188.5 C 398.326,190.861 397.993,193.194 397.5,195.5C 404.833,195.5 412.167,195.5 419.5,195.5C 419.025,192.918 419.692,190.918 421.5,189.5C 421.279,192.067 420.612,194.401 419.5,196.5C 411.427,197.132 403.76,196.465 396.5,194.5C 396.595,192.214 397.262,190.214 398.5,188.5 Z"/></g>
<g><path style="opacity:0.905" fill="#1e288e" d="M 561.5,110.5 C 561.833,110.5 562.167,110.5 562.5,110.5C 562.5,138.833 562.5,167.167 562.5,195.5C 581.167,195.5 599.833,195.5 618.5,195.5C 618.5,195.833 618.5,196.167 618.5,196.5C 599.5,196.5 580.5,196.5 561.5,196.5C 561.5,167.833 561.5,139.167 561.5,110.5 Z"/></g>
<g><path style="opacity:0.905" fill="#1e288d" d="M 690.5,177.5 C 691.49,183.645 691.823,189.978 691.5,196.5C 673.167,196.5 654.833,196.5 636.5,196.5C 636.5,196.167 636.5,195.833 636.5,195.5C 654.5,195.5 672.5,195.5 690.5,195.5C 690.5,189.5 690.5,183.5 690.5,177.5 Z"/></g>
<g><path style="opacity:0.8" fill="#8580be" d="M 725.5,194.5 C 728.649,194.415 731.316,195.415 733.5,197.5C 730.351,197.585 727.684,196.585 725.5,194.5 Z"/></g>
<g><path style="opacity:0.792" fill="#a4a3d0" d="M 79.5,196.5 C 82.4274,197.757 84.7607,199.757 86.5,202.5C 83.5726,201.243 81.2393,199.243 79.5,196.5 Z"/></g>
<g><path style="opacity:0.148" fill="#abacd4" d="M 263.5,129.5 C 264.497,151.66 264.831,173.994 264.5,196.5C 271.833,196.5 279.167,196.5 286.5,196.5C 286.833,196.5 287.167,196.5 287.5,196.5C 279.684,197.492 271.684,197.826 263.5,197.5C 263.5,174.833 263.5,152.167 263.5,129.5 Z"/></g>
<g><path style="opacity:0.149" fill="#d3d5e8" d="M 394.5,194.5 C 395.167,194.5 395.833,194.5 396.5,194.5C 403.76,196.465 411.427,197.132 419.5,196.5C 402.833,197.833 386.167,197.833 369.5,196.5C 378.234,197.135 386.567,196.468 394.5,194.5 Z"/></g>
<g><path style="opacity:0.159" fill="#d2d4e7" d="M 476.5,194.5 C 477.404,195.209 477.737,196.209 477.5,197.5C 468.983,197.826 460.65,197.493 452.5,196.5C 460.167,196.5 467.833,196.5 475.5,196.5C 476.338,196.158 476.672,195.492 476.5,194.5 Z"/></g>
<g><path style="opacity:0.156" fill="#cccee5" d="M 532.5,180.5 C 531.325,186.201 529.991,191.868 528.5,197.5C 518.652,197.827 508.986,197.494 499.5,196.5C 508.833,196.5 518.167,196.5 527.5,196.5C 528.566,190.88 530.233,185.547 532.5,180.5 Z"/></g>
<g><path style="opacity:0.149" fill="#d5d7ea" d="M 561.5,109.5 C 561.5,109.833 561.5,110.167 561.5,110.5C 561.5,139.167 561.5,167.833 561.5,196.5C 580.5,196.5 599.5,196.5 618.5,196.5C 618.833,196.5 619.167,196.5 619.5,196.5C 600.007,197.497 580.34,197.83 560.5,197.5C 560.169,167.995 560.502,138.662 561.5,109.5 Z"/></g>
<g><path style="opacity:0.051" fill="#cbcde5" d="M 761.5,194.5 C 758.916,196.472 755.916,197.472 752.5,197.5C 755.215,195.928 758.215,194.928 761.5,194.5 Z"/></g>
<g><path style="opacity:0.2" fill="#bbbcdc" d="M 219.5,195.5 C 219.573,197.027 218.906,198.027 217.5,198.5C 217.427,196.973 218.094,195.973 219.5,195.5 Z"/></g>
<g><path style="opacity:0.455" fill="#b1b4d8" d="M 733.5,197.5 C 739.833,197.5 746.167,197.5 752.5,197.5C 749.491,198.283 746.324,198.95 743,199.5C 739.676,198.95 736.509,198.283 733.5,197.5 Z"/></g>
<g><path style="opacity:0.463" fill="#a8aad4" d="M 212.5,197.5 C 214.042,198.301 215.708,198.634 217.5,198.5C 216.903,199.139 216.07,199.472 215,199.5C 213.624,199.316 212.791,198.649 212.5,197.5 Z"/></g>
<g><path style="opacity:0.718" fill="#9596c9" d="M 86.5,202.5 C 88.4044,202.738 89.7377,203.738 90.5,205.5C 88.5956,205.262 87.2623,204.262 86.5,202.5 Z"/></g>
<g><path style="opacity:0.227" fill="#bcbede" d="M 90.5,205.5 C 92.0269,205.427 93.0269,206.094 93.5,207.5C 91.9731,207.573 90.9731,206.906 90.5,205.5 Z"/></g>
<g><path style="opacity:0.98" fill="#6d69b2" d="M 99.5,210.5 C 103.533,211.025 107.2,212.358 110.5,214.5C 106.467,213.975 102.8,212.642 99.5,210.5 Z"/></g>
<g><path style="opacity:0.235" fill="#b6b8da" d="M 148.5,212.5 C 146.786,213.738 144.786,214.405 142.5,214.5C 144.102,212.926 146.102,212.259 148.5,212.5 Z"/></g>
<g><path style="opacity:0.714" fill="#9b9ccc" d="M 141.5,214.5 C 132.585,217.883 123.585,218.216 114.5,215.5C 123.524,215.642 132.524,215.308 141.5,214.5 Z"/></g>
</svg>
